<svg xmlns="http://www.w3.org/2000/svg" id="uuid-0514b592-ab2b-4048-92a5-fe401fd506da" width="38.85mm" height="6.01mm" viewBox="0 0 110.13 17.03"><path d="m77.69,13.73v.71c-.24.24-.48.35-.73.35-.23,0-.36-.13-.36-.36,0-.39.35-.6,1.09-.71m.09,1.62h.75c-.03-.18-.05-.34-.05-.45v-1.96c0-.61-.44-.99-1.22-.99-.57,0-1,.22-1.28.65l.53.34c.18-.25.43-.38.73-.38s.47.14.47.38v.26c-1.27.16-1.89.55-1.89,1.3,0,.55.33.89.89.89.36,0,.69-.11.99-.33l.07.29Z" fill="#fff"></path><path d="m79.3,11.48h.79v-.74h-.79v.74Zm0,3.88h.79v-3.33h-.79v3.33Z" fill="#fff"></path><path d="m82.97,14.4c-.23.48-.48.7-.89.7-.6,0-.95-.5-.95-1.41s.36-1.39.93-1.39c.4,0,.67.22.85.7l.34-.13c-.23-.6-.62-.89-1.2-.89-.78,0-1.32.65-1.32,1.75s.53,1.7,1.35,1.7c.55,0,.9-.25,1.19-.85l-.3-.17Z" fill="#fff"></path><path d="m85.78,15.36h.39c-.04-.21-.06-.36-.06-.45v-2.07c0-.5-.44-.87-1.07-.87-.57,0-.92.22-1.18.68l.31.18c.2-.36.46-.53.83-.53.46,0,.73.22.73.55v.32c-1.39.25-2.03.59-2.03,1.36,0,.52.35.89.9.89.41,0,.77-.17,1.13-.5,0,.14.03.29.06.44m-.06-.85c-.39.39-.72.59-1.08.59-.34,0-.55-.22-.55-.59,0-.57.52-.78,1.63-1.02v1.02Z" fill="#fff"></path><path d="m87.57,14.73v-2.38h.69v-.32h-.69v-.99h-.39v.99h-.5v.32h.5v2.36c0,.48.2.71.66.71.15,0,.3-.03.45-.06v-.32c-.15.04-.26.06-.35.06-.25,0-.36-.12-.36-.38" fill="#fff"></path><path d="m3.1,14.11c-.44.59-.86.87-1.36.87-.75,0-1.19-.68-1.19-1.96s.45-1.97,1.19-1.97c.47,0,.92.29,1.36.88v2.17Zm0,.64l.14.6h.44c-.04-.2-.04-.43-.04-.68v-5.74h-.55v2.37h-.04c-.43-.46-.87-.68-1.4-.68-.95,0-1.65.86-1.65,2.4s.7,2.41,1.65,2.41c.53,0,.98-.22,1.4-.68h.04Z" fill="#fff"></path><path d="m7.75,12.62h-2.55c.09-1,.6-1.55,1.33-1.55s1.19.54,1.22,1.55m.13,1.4c-.33.68-.71.98-1.31.98-.88,0-1.37-.68-1.38-1.97h3.07v-.15c0-1.48-.62-2.25-1.74-2.25s-1.88.91-1.88,2.45c0,1.46.74,2.37,1.89,2.37.82,0,1.34-.36,1.75-1.2l-.41-.22Z" fill="#fff"></path><path d="m16.13,13.42l-.52-.12c-.25,1.1-.77,1.65-1.64,1.65-1.13,0-1.83-1-1.83-2.83s.67-2.79,1.77-2.79c.78,0,1.29.47,1.61,1.46l.55-.13c-.35-1.24-1.03-1.84-2.13-1.84-1.54,0-2.43,1.16-2.43,3.27s.9,3.38,2.43,3.38c1.19,0,1.89-.68,2.19-2.05" fill="#fff"></path><path d="m19.64,15.36h.54c-.05-.29-.08-.51-.08-.62v-2.89c0-.69-.61-1.22-1.49-1.22-.8,0-1.29.31-1.65.95l.43.25c.28-.5.65-.75,1.16-.75.64,0,1.02.31,1.02.76v.45c-1.95.35-2.85.83-2.85,1.9,0,.72.49,1.24,1.25,1.24.57,0,1.08-.23,1.58-.7,0,.2.04.4.09.61m-.09-1.18c-.54.55-1,.83-1.51.83-.48,0-.77-.31-.77-.83,0-.79.72-1.08,2.29-1.43v1.43Z" fill="#fff"></path><path d="m22.1,14.48v-3.33h.97v-.45h-.97v-1.38h-.54v1.38h-.69v.45h.69v3.3c0,.68.28,1,.92,1,.2,0,.42-.04.62-.09v-.44c-.2.05-.36.09-.49.09-.35,0-.51-.17-.51-.52" fill="#fff"></path><path d="m26.4,15.36h.54c-.05-.29-.08-.51-.08-.62v-2.89c0-.69-.61-1.22-1.49-1.22-.8,0-1.29.31-1.65.95l.43.25c.28-.5.65-.75,1.16-.75.64,0,1.02.31,1.02.76v.45c-1.95.35-2.85.83-2.85,1.9,0,.72.49,1.24,1.25,1.24.57,0,1.08-.23,1.58-.7,0,.2.04.4.09.61m-.09-1.18c-.54.55-1,.83-1.51.83-.48,0-.77-.31-.77-.83,0-.79.72-1.08,2.29-1.43v1.43Z" fill="#fff"></path><rect x="28.26" y="8.94" width=".56" height="6.42" fill="#fff"></rect><path d="m33.66,10.71h-.54v3.38c-.5.58-1,.87-1.46.87-.71,0-.87-.39-.87-1.21v-3.04h-.54v3.24c0,1,.43,1.49,1.26,1.49.52,0,1.06-.27,1.61-.81v.73h.54v-4.65Z" fill="#fff"></path><path d="m35.07,15.36h.55v-3.39c.5-.58.99-.86,1.45-.86.71,0,.87.39.87,1.21v3.04h.54v-3.24c0-1-.42-1.49-1.25-1.49-.52,0-1.06.27-1.61.81v-.73h-.55v4.65Z" fill="#fff"></path><path d="m40.89,15.33c-.18.88-.48,1.25-1.15,1.25-.12,0-.25,0-.39-.04v.44c.18.03.34.04.48.04.8,0,1.17-.38,1.49-1.31l1.75-5.01h-.52l-1.36,3.96-1.37-3.96h-.55l1.62,4.62Z" fill="#fff"></path><path d="m46.44,15.36h.54c-.05-.29-.08-.51-.08-.62v-2.89c0-.69-.61-1.22-1.49-1.22-.8,0-1.29.31-1.65.95l.43.25c.28-.5.65-.75,1.16-.75.64,0,1.02.31,1.02.76v.45c-1.95.35-2.85.83-2.85,1.9,0,.72.49,1.24,1.25,1.24.57,0,1.08-.23,1.58-.7,0,.2.04.4.09.61m-.09-1.18c-.54.55-1,.83-1.51.83-.48,0-.77-.31-.77-.83,0-.79.72-1.08,2.29-1.43v1.43Z" fill="#fff"></path><path d="m.28,6.46h1.12v-2.85c.26-.47.69-.73,1.17-.73h.05v-1.15s-.1,0-.14,0c-.46,0-.85.28-1.16.85v-.77H.28v4.66Z" fill="#fff"></path><path d="m4.06,3.53c.04-.63.36-.99.85-.99.52,0,.84.36.84.99h-1.7Zm2.73,2.02l-.81-.5c-.26.41-.53.6-.95.6-.65,0-.98-.44-.99-1.32h2.79c0-.08,0-.16,0-.24,0-1.51-.72-2.37-1.93-2.37s-1.96.88-1.96,2.43.74,2.41,1.97,2.41c.86,0,1.5-.35,1.86-1" fill="#fff"></path><path d="m8.7,6.37l1.02.05c.42.02.62.12.62.37,0,.33-.44.58-1.21.58-.57,0-.91-.21-.91-.52,0-.2.15-.34.47-.49m-.24-3.03c0-.48.3-.78.73-.78.47,0,.78.31.78.76s-.3.75-.76.75-.76-.27-.76-.73m-.47,2.8c-.55.18-.81.42-.81.85,0,.76.67,1.17,1.97,1.17,1.43,0,2.19-.52,2.19-1.44s-.51-1.12-1.71-1.21c-.8-.06-1.23-.04-1.23-.35,0-.12.1-.23.3-.31.14.04.31.05.51.05,1.08,0,1.74-.59,1.74-1.48,0-.36-.07-.63-.21-.84.13-.09.26-.12.41-.12.06,0,.13,0,.21.02v-.82c-.05,0-.11,0-.16,0-.35,0-.63.15-.85.44-.36-.27-.72-.39-1.17-.39-1.06,0-1.77.67-1.77,1.62,0,.54.22.96.65,1.22-.45.23-.69.55-.69.88s.2.51.61.71" fill="#fff"></path><path d="m12.01,1.04h1.1V0h-1.1v1.04Zm0,5.42h1.1V1.81h-1.1v4.66Z" fill="#fff"></path><path d="m13.84,5.62c.49.65,1.05.94,1.82.94.99,0,1.63-.57,1.63-1.43,0-.81-.43-1.13-1.28-1.46-.66-.26-1.04-.34-1.04-.65,0-.28.21-.46.6-.46.32,0,.61.16.91.47l.69-.6c-.43-.48-.92-.71-1.57-.71-.97,0-1.6.59-1.6,1.36s.5,1.08,1.46,1.44c.52.2.85.28.85.67,0,.31-.24.52-.65.52-.38,0-.72-.22-1.07-.67l-.75.59Z" fill="#fff"></path><path d="m19.3,5.07v-2.36h.91v-.91h-.91V.31h-1.1v1.49h-.6v.91h.6v2.76c0,.76.33,1.09,1.09,1.09.44,0,.75-.04.92-.08v-.91c-.18.03-.34.04-.45.04-.4,0-.45-.15-.45-.54" fill="#fff"></path><path d="m20.9,6.46h1.12v-2.85c.26-.47.69-.73,1.17-.73h.05v-1.15s-.1,0-.14,0c-.46,0-.85.28-1.16.85v-.77h-1.05v4.66Z" fill="#fff"></path><path d="m24.68,3.53c.04-.63.36-.99.85-.99.52,0,.84.36.84.99h-1.7Zm2.73,2.02l-.81-.5c-.26.41-.53.6-.95.6-.65,0-.98-.44-.99-1.32h2.79c0-.08,0-.16,0-.24,0-1.51-.72-2.37-1.93-2.37s-1.96.88-1.96,2.43.74,2.41,1.97,2.41c.86,0,1.5-.35,1.86-1" fill="#fff"></path><path d="m33.52,5.23c-.28.27-.52.4-.82.4-.61,0-.99-.52-.99-1.49s.38-1.51.98-1.51c.3,0,.54.13.83.39v2.21Zm.16.74l.12.5h.85c-.04-.5-.05-.86-.05-1.08V0h-1.09v2.25c-.32-.37-.66-.53-1.13-.53-1,0-1.78.92-1.78,2.42s.76,2.42,1.82,2.42c.52,0,.92-.19,1.25-.59" fill="#fff"></path><polygon points="35.63 2.66 36.21 2.66 36.77 1.33 36.77 0 35.57 0 35.57 1.25 36.07 1.25 35.63 2.66" fill="#fff"></polygon><path d="m39.33,4.2v1c-.34.33-.68.49-1.02.49-.32,0-.5-.19-.5-.5,0-.55.49-.84,1.52-.99m.12,2.27h1.05c-.04-.26-.07-.47-.07-.63v-2.74c0-.85-.61-1.38-1.71-1.38-.8,0-1.4.3-1.79.91l.75.47c.25-.35.6-.53,1.02-.53s.66.2.66.53v.36c-1.78.22-2.64.77-2.64,1.81,0,.77.46,1.25,1.24,1.25.5,0,.96-.15,1.39-.46l.1.41Z" fill="#fff"></path><path d="m42.62,6.37l1.02.05c.42.02.62.12.62.37,0,.33-.44.58-1.21.58-.57,0-.91-.21-.91-.52,0-.2.15-.34.47-.49m-.24-3.03c0-.48.3-.78.73-.78.47,0,.78.31.78.76s-.3.75-.76.75-.76-.27-.76-.73m-.47,2.8c-.55.18-.81.42-.81.85,0,.76.67,1.17,1.97,1.17,1.43,0,2.19-.52,2.19-1.44s-.51-1.12-1.71-1.21c-.8-.06-1.23-.04-1.23-.35,0-.12.1-.23.3-.31.14.04.31.05.51.05,1.08,0,1.74-.59,1.74-1.48,0-.36-.07-.63-.21-.84.13-.09.26-.12.41-.12.06,0,.13,0,.21.02v-.82c-.05,0-.11,0-.16,0-.35,0-.63.15-.85.44-.36-.27-.72-.39-1.16-.39-1.06,0-1.77.67-1.77,1.62,0,.54.22.96.65,1.22-.45.23-.69.55-.69.88s.2.51.61.71" fill="#fff"></path><path d="m46.69,3.53c.04-.63.36-.99.85-.99.52,0,.84.36.84.99h-1.7Zm2.73,2.02l-.81-.5c-.26.41-.53.6-.95.6-.65,0-.98-.44-.99-1.32h2.79c0-.08,0-.16,0-.24,0-1.51-.72-2.37-1.93-2.37s-1.96.88-1.96,2.43.74,2.41,1.97,2.41c.86,0,1.5-.35,1.86-1" fill="#fff"></path><path d="m50.27,6.46h1.09v-3.33c.37-.35.7-.52,1.03-.52.4,0,.53.26.53.83v3.02h1.1v-3.24c0-1-.44-1.51-1.31-1.51-.52,0-.92.22-1.44.64v-.55h-1.01v4.66Z" fill="#fff"></path><path d="m56.37,5.07v-2.36h.91v-.91h-.91V.31h-1.1v1.49h-.6v.91h.6v2.76c0,.76.33,1.09,1.09,1.09.44,0,.75-.04.92-.08v-.91c-.18.03-.34.04-.45.04-.4,0-.45-.15-.45-.54" fill="#fff"></path><path d="m57.62,5.62c.49.65,1.05.94,1.82.94.99,0,1.63-.57,1.63-1.43,0-.81-.43-1.13-1.28-1.46-.66-.26-1.04-.34-1.04-.65,0-.28.21-.46.6-.46.32,0,.61.16.91.47l.69-.6c-.43-.48-.92-.71-1.57-.71-.97,0-1.6.59-1.6,1.36s.5,1.08,1.46,1.44c.52.2.85.28.85.67,0,.31-.24.52-.65.52-.38,0-.72-.22-1.07-.67l-.75.59Z" fill="#fff"></path><path d="m64.52,1.04h1.1V0h-1.1v1.04Zm0,5.42h1.1V1.81h-1.1v4.66Z" fill="#fff"></path><path d="m66.75,6.46h1.09v-3.35c.27-.31.62-.48.99-.48.34,0,.48.24.48.75v3.09h1.08v-3.36c.31-.32.64-.48.98-.48s.51.23.51.63v3.21h1.1v-3.57c0-.73-.47-1.18-1.24-1.18-.59,0-1.03.22-1.5.69-.23-.47-.6-.69-1.15-.69s-.95.21-1.32.63v-.54h-1.01v4.66Z" fill="#fff"></path><path d="m74.08,6.46h1.09v-3.35c.27-.31.62-.48.99-.48.34,0,.48.24.48.75v3.09h1.08v-3.36c.31-.32.64-.48.98-.48s.51.23.51.63v3.21h1.1v-3.57c0-.73-.47-1.18-1.24-1.18-.59,0-1.03.22-1.5.69-.23-.47-.6-.69-1.15-.69s-.95.21-1.32.63v-.54h-1.01v4.66Z" fill="#fff"></path><path d="m82.18,4.13c0-.99.29-1.47.88-1.47s.88.48.88,1.47-.28,1.48-.88,1.48-.88-.49-.88-1.48m-1.11,0c0,1.52.76,2.42,1.99,2.42s1.99-.89,1.99-2.42-.75-2.42-1.99-2.42-1.99.89-1.99,2.42" fill="#fff"></path><path d="m86.93,5.23v-2.21c.28-.26.53-.39.84-.39.6,0,.98.53.98,1.51s-.37,1.49-.99,1.49c-.3,0-.55-.13-.83-.4m-1.13,1.24h.85l.12-.5c.38.41.76.59,1.26.59,1.06,0,1.81-.97,1.81-2.42s-.77-2.42-1.78-2.42c-.47,0-.81.16-1.13.53V0h-1.09v5.38c0,.22-.02.59-.05,1.08" fill="#fff"></path><path d="m90.66,1.04h1.1V0h-1.1v1.04Zm0,5.42h1.1V1.81h-1.1v4.66Z" fill="#fff"></path><rect x="92.89" width="1.1" height="6.46" fill="#fff"></rect><path d="m95.11,1.04h1.1V0h-1.1v1.04Zm0,5.42h1.1V1.81h-1.1v4.66Z" fill="#fff"></path><path d="m99.63,4.2v1c-.34.33-.68.49-1.02.49-.32,0-.5-.19-.5-.5,0-.55.49-.84,1.52-.99m.12,2.27h1.05c-.04-.26-.07-.47-.07-.63v-2.74c0-.85-.61-1.38-1.71-1.38-.8,0-1.4.3-1.79.91l.75.47c.25-.35.6-.53,1.02-.53s.66.2.66.53v.36c-1.78.22-2.64.77-2.64,1.81,0,.77.46,1.25,1.24,1.25.5,0,.96-.15,1.39-.46l.1.41Z" fill="#fff"></path><path d="m101.84,6.46h1.12v-2.85c.26-.47.69-.73,1.17-.73h.05v-1.15s-.1,0-.14,0c-.46,0-.85.28-1.16.85v-.77h-1.05v4.66Z" fill="#fff"></path><path d="m104.85,1.04h1.1V0h-1.1v1.04Zm0,5.42h1.1V1.81h-1.1v4.66Z" fill="#fff"></path><path d="m106.68,5.62c.49.65,1.05.94,1.82.94.99,0,1.63-.57,1.63-1.43,0-.81-.43-1.13-1.28-1.46-.66-.26-1.04-.34-1.04-.65,0-.28.21-.46.6-.46.32,0,.61.16.91.47l.69-.6c-.43-.48-.92-.71-1.57-.71-.97,0-1.6.59-1.6,1.36s.5,1.08,1.46,1.44c.52.2.85.28.85.67,0,.31-.24.52-.65.52-.38,0-.72-.22-1.07-.67l-.75.59Z" fill="#fff"></path><g><path d="m90.86,11.35c.3-.07.54-.13.73-.2s.39-.16.6-.27h.67v4.02h.93v.68h-2.93v-.68h1.18v-3.18c-.34.13-.74.22-1.18.25v-.62Z" fill="#fff"></path><path d="m94.8,11.35c.3-.07.54-.13.73-.2s.39-.16.6-.27h.67v4.02h.93v.68h-2.93v-.68h1.18v-3.18c-.34.13-.74.22-1.18.25v-.62Z" fill="#fff"></path><path d="m100.97,13.32c-.2.17-.4.3-.6.39-.2.09-.4.13-.61.13-.39,0-.73-.14-1-.42-.27-.28-.41-.62-.41-1.04,0-.29.07-.56.22-.81.14-.25.35-.44.61-.58.26-.14.54-.2.82-.2.43,0,.81.15,1.15.46.43.39.64.99.64,1.79,0,.41-.06.78-.17,1.13-.12.35-.26.63-.43.83-.17.21-.37.37-.6.49s-.49.18-.77.18c-.54,0-.99-.21-1.37-.63l.53-.67c.24.31.52.47.83.47.19,0,.38-.06.56-.18.18-.12.33-.32.44-.58.08-.19.13-.45.16-.77Zm-.08-.96c-.08-.29-.2-.5-.36-.64s-.34-.2-.54-.2c-.22,0-.39.07-.53.21-.14.14-.21.33-.21.57s.07.41.2.55c.13.14.29.21.48.21.18,0,.35-.06.5-.17.15-.11.31-.29.46-.53Z" fill="#fff"></path><path d="m103.17,13.12c.2-.17.4-.3.6-.38.2-.09.41-.13.62-.13.34,0,.66.13.95.39s.44.62.44,1.07c0,.29-.07.56-.21.81-.14.25-.34.45-.59.59s-.53.21-.82.21c-.46,0-.85-.15-1.18-.46-.43-.39-.64-.98-.64-1.77,0-.52.09-.99.28-1.42.19-.43.43-.75.73-.94s.61-.29.92-.29c.28,0,.55.06.81.17.2.09.4.23.58.43l-.52.66c-.13-.16-.26-.28-.39-.35s-.27-.11-.43-.11c-.22,0-.41.07-.6.21-.18.14-.32.35-.43.63-.07.18-.11.41-.13.68Zm.07.97c.07.29.18.5.34.64.16.14.34.21.56.21s.39-.07.53-.22c.14-.15.21-.34.21-.57s-.07-.41-.2-.54c-.13-.14-.3-.21-.5-.21-.18,0-.34.05-.49.16-.15.11-.3.29-.46.55Z" fill="#fff"></path><path d="m106.35,10.88h3.18v.8l-1.84,3.9h-.94l1.83-3.9h-2.24v-.8Z" fill="#fff"></path></g></svg>